<?xml version="1.0" encoding="UTF-8"?>
<svg id="Layer_2" data-name="Layer 2" xmlns="http://www.w3.org/2000/svg" viewBox="0 0 68.4 124.98">
  <defs>
    <style>
      .cls-1 {
        fill: #fff;
        stroke-width: 0px;
      }
    </style>
  </defs>
  <g id="Layer_1-2" data-name="Layer 1">
    <g>
      <path class="cls-1" d="M2.45,124.98c-1.63,0-2.45-.74-2.45-2.23V2.41C0,.81.82,0,2.45,0h62.94c1.51,0,2.38.12,2.64.37.25.25.38,1.05.38,2.41v13c0,1.49-.19,2.38-.57,2.69-.38.31-1.2.46-2.45.46H26.57c-.88,0-1.38.06-1.51.19-.13.12-.19.56-.19,1.3v30.64c0,.74.09,1.21.28,1.39.19.19.59.28,1.22.28h30.15c1.63,0,2.57.16,2.83.46.25.31.38,1.33.38,3.06v11.7c0,1.61-.16,2.57-.47,2.88-.31.31-1.22.46-2.73.46h-30.15c-.63,0-1.04.06-1.22.19-.19.12-.28.5-.28,1.11v48.84c0,1.74-.16,2.76-.47,3.06-.31.31-1.35.46-3.11.46H2.45Z"/>
      <path class="cls-1" d="M30.57,124.95c-.65,0-.97-.29-.97-.88v-47.63c0-.64.32-.96.97-.96h24.91c.6,0,.94.05,1.04.15.1.1.15.42.15.96v5.14c0,.59-.07.94-.22,1.07-.15.12-.47.18-.97.18h-15.36c-.35,0-.55.03-.6.07-.05.05-.08.22-.08.51v12.13c0,.29.04.48.11.55s.24.11.48.11h11.93c.65,0,1.02.06,1.12.18.1.12.15.53.15,1.21v4.63c0,.64-.06,1.02-.19,1.14-.12.12-.48.18-1.08.18h-11.93c-.25,0-.41.02-.48.07s-.11.2-.11.44v19.33c0,.69-.06,1.09-.19,1.21-.12.12-.53.18-1.23.18h-7.46Z"/>
    </g>
  </g>
</svg>